# xmcd CD database file
#
# Track frame offsets:
#	182
#	25095
#	37832
#	69832
#	88532
#	108857
#	128232
#	156795
#	179220
#	191582
#
# Disc length: 2882 seconds
#
# Revision: 0
# Processed by: cddbd v1.5.2PL0 Copyright (c) Steve Scherf et al.
# Submitted via: CDex 1.70beta2
#
DISCID=790b400a
DTITLE=Mat Mathews Sextet - Meditation
DYEAR=1900
DGENRE=Jazz
TTITLE0=Lullaby Of The Leaves
TTITLE1=You Go To My Head
TTITLE2=Not So Sleepy
TTITLE3=On A Clear Day (You Can See Forever)
TTITLE4=Meditation
TTITLE5=Honeysuckle Rose
TTITLE6=Wilhelmina
TTITLE7=Geargia On My Mind
TTITLE8=My One And Only Love
TTITLE9=Blue Monk
EXTD=
EXTT0=
EXTT1=
EXTT2=
EXTT3=
EXTT4=
EXTT5=
EXTT6=
EXTT7=
EXTT8=
EXTT9=
PLAYORDER=
